<?xml version="1.0" encoding="UTF-8" standalone="no"?><svg xmlns="http://www.w3.org/2000/svg" xmlns:xlink="http://www.w3.org/1999/xlink" contentStyleType="text/css" height="763px" preserveAspectRatio="none" style="width:872px;height:763px;background:#FFFFFF;" version="1.1" viewBox="0 0 872 763" width="872px" zoomAndPan="magnify"><defs/><g><!--MD5=[e59cf999063292dce8d6ea34dd10a338]
class user--><g id="elem_user"><rect codeLine="1" fill="#F1F1F1" height="196.3945" id="user" rx="2.5" ry="2.5" style="stroke:#181818;stroke-width:0.5;" width="201" x="212" y="321"/><ellipse cx="293.25" cy="337" fill="#ADD1B2" rx="11" ry="11" style="stroke:#181818;stroke-width:1.0;"/><path d="M296.8643,343.5 L289.1445,343.5 L289.1445,331.1069 L296.8643,331.1069 L296.8643,333.2651 L291.5933,333.2651 L291.5933,335.938 L296.3662,335.938 L296.3662,338.0962 L291.5933,338.0962 L291.5933,341.3418 L296.8643,341.3418 Z " fill="#000000"/><text fill="#000000" font-family="sans-serif" font-size="14" lengthAdjust="spacing" textLength="30" x="313.75" y="342.291">user</text><line style="stroke:#181818;stroke-width:0.5;" x1="213" x2="412" y1="353" y2="353"/><ellipse cx="223" cy="366.7441" fill="#84BE84" rx="3" ry="3" style="stroke:#038048;stroke-width:1.0;"/><text fill="#000000" font-family="sans-serif" font-size="14" lengthAdjust="spacing" textLength="72" x="232" y="370.5352">id: INT(11)</text><line style="stroke:#181818;stroke-width:1.0;" x1="213" x2="412" y1="377.4883" y2="377.4883"/><text fill="#000000" font-family="sans-serif" font-size="14" lengthAdjust="spacing" textLength="141" x="218" y="395.0234">subId: VARCHAR(24)</text><text fill="#000000" font-family="sans-serif" font-size="14" lengthAdjust="spacing" textLength="150" x="218" y="411.5117">name: VARCHAR(255)</text><text fill="#000000" font-family="sans-serif" font-size="14" lengthAdjust="spacing" textLength="149" x="218" y="428">email: VARCHAR(255)</text><text fill="#000000" font-family="sans-serif" font-size="14" lengthAdjust="spacing" textLength="189" x="218" y="444.4883">description: VARCHAR(255)</text><text fill="#000000" font-family="sans-serif" font-size="14" lengthAdjust="spacing" textLength="163" x="218" y="460.9766">createdAt: DATETIME(6)</text><text fill="#000000" font-family="sans-serif" font-size="14" lengthAdjust="spacing" textLength="169" x="218" y="477.4648">updatedAt: DATETIME(6)</text><text fill="#000000" font-family="sans-serif" font-size="14" lengthAdjust="spacing" textLength="163" x="218" y="493.9531">deletedAt: DATETIME(6)</text><text fill="#000000" font-family="sans-serif" font-size="14" lengthAdjust="spacing" textLength="114" x="218" y="510.4414">avatarId: INT(11)</text></g><!--MD5=[76410cda49e5d7b75c5bd06aa47a685f]
class message--><g id="elem_message"><rect codeLine="14" fill="#F1F1F1" height="179.9063" id="message" rx="2.5" ry="2.5" style="stroke:#181818;stroke-width:0.5;" width="185" x="7" y="577"/><ellipse cx="65.25" cy="593" fill="#ADD1B2" rx="11" ry="11" style="stroke:#181818;stroke-width:1.0;"/><path d="M68.8643,599.5 L61.1445,599.5 L61.1445,587.1069 L68.8643,587.1069 L68.8643,589.2651 L63.5933,589.2651 L63.5933,591.938 L68.3662,591.938 L68.3662,594.0962 L63.5933,594.0962 L63.5933,597.3418 L68.8643,597.3418 Z " fill="#000000"/><text fill="#000000" font-family="sans-serif" font-size="14" lengthAdjust="spacing" textLength="60" x="85.75" y="598.291">message</text><line style="stroke:#181818;stroke-width:0.5;" x1="8" x2="191" y1="609" y2="609"/><ellipse cx="18" cy="622.7441" fill="#84BE84" rx="3" ry="3" style="stroke:#038048;stroke-width:1.0;"/><text fill="#000000" font-family="sans-serif" font-size="14" lengthAdjust="spacing" textLength="72" x="27" y="626.5352">id: INT(11)</text><line style="stroke:#181818;stroke-width:1.0;" x1="8" x2="191" y1="633.4883" y2="633.4883"/><text fill="#000000" font-family="sans-serif" font-size="14" lengthAdjust="spacing" textLength="173" x="13" y="651.0234">content: VARCHAR(4000)</text><text fill="#000000" font-family="sans-serif" font-size="14" lengthAdjust="spacing" textLength="118" x="13" y="667.5117">authorId: INT(11)</text><text fill="#000000" font-family="sans-serif" font-size="14" lengthAdjust="spacing" textLength="117" x="13" y="684">parentId: INT(11)</text><text fill="#000000" font-family="sans-serif" font-size="14" lengthAdjust="spacing" textLength="162" x="13" y="700.4883">roomId: VARCHAR(255)</text><text fill="#000000" font-family="sans-serif" font-size="14" lengthAdjust="spacing" textLength="163" x="13" y="716.9766">createdAt: DATETIME(6)</text><text fill="#000000" font-family="sans-serif" font-size="14" lengthAdjust="spacing" textLength="169" x="13" y="733.4648">updatedAt: DATETIME(6)</text><text fill="#000000" font-family="sans-serif" font-size="14" lengthAdjust="spacing" textLength="163" x="13" y="749.9531">deletedAt: DATETIME(6)</text></g><!--MD5=[3e91a4b4113ea64e939288529d461126]
class room--><g id="elem_room"><rect codeLine="26" fill="#F1F1F1" height="179.9063" id="room" rx="2.5" ry="2.5" style="stroke:#181818;stroke-width:0.5;" width="201" x="448" y="329"/><ellipse cx="525.75" cy="345" fill="#ADD1B2" rx="11" ry="11" style="stroke:#181818;stroke-width:1.0;"/><path d="M529.3643,351.5 L521.6445,351.5 L521.6445,339.1069 L529.3643,339.1069 L529.3643,341.2651 L524.0933,341.2651 L524.0933,343.938 L528.8662,343.938 L528.8662,346.0962 L524.0933,346.0962 L524.0933,349.3418 L529.3643,349.3418 Z " fill="#000000"/><text fill="#000000" font-family="sans-serif" font-size="14" lengthAdjust="spacing" textLength="37" x="546.25" y="350.291">room</text><line style="stroke:#181818;stroke-width:0.5;" x1="449" x2="648" y1="361" y2="361"/><ellipse cx="459" cy="374.7441" fill="#84BE84" rx="3" ry="3" style="stroke:#038048;stroke-width:1.0;"/><text fill="#000000" font-family="sans-serif" font-size="14" lengthAdjust="spacing" textLength="116" x="468" y="378.5352">id: VARCHAR(36)</text><line style="stroke:#181818;stroke-width:1.0;" x1="449" x2="648" y1="385.4883" y2="385.4883"/><text fill="#000000" font-family="sans-serif" font-size="14" lengthAdjust="spacing" textLength="141" x="454" y="403.0234">name: VARCHAR(50)</text><text fill="#000000" font-family="sans-serif" font-size="14" lengthAdjust="spacing" textLength="189" x="454" y="419.5117">description: VARCHAR(120)</text><text fill="#000000" font-family="sans-serif" font-size="14" lengthAdjust="spacing" textLength="139" x="454" y="436">isPrivate: TINYINT(4)</text><text fill="#000000" font-family="sans-serif" font-size="14" lengthAdjust="spacing" textLength="163" x="454" y="452.4883">createdAt: DATETIME(6)</text><text fill="#000000" font-family="sans-serif" font-size="14" lengthAdjust="spacing" textLength="169" x="454" y="468.9766">updatedAt: DATETIME(6)</text><text fill="#000000" font-family="sans-serif" font-size="14" lengthAdjust="spacing" textLength="163" x="454" y="485.4648">deletedAt: DATETIME(6)</text><text fill="#000000" font-family="sans-serif" font-size="14" lengthAdjust="spacing" textLength="114" x="454" y="501.9531">avatarId: INT(11)</text></g><!--MD5=[8f4d364c992472b15a0496247ee5cd46]
class ownership--><g id="elem_ownership"><rect codeLine="38" fill="#F1F1F1" height="80.9766" id="ownership" rx="2.5" ry="2.5" style="stroke:#181818;stroke-width:0.5;" width="179" x="245" y="626.5"/><ellipse cx="294.25" cy="642.5" fill="#ADD1B2" rx="11" ry="11" style="stroke:#181818;stroke-width:1.0;"/><path d="M297.8643,649 L290.1445,649 L290.1445,636.6069 L297.8643,636.6069 L297.8643,638.7651 L292.5933,638.7651 L292.5933,641.438 L297.3662,641.438 L297.3662,643.5962 L292.5933,643.5962 L292.5933,646.8418 L297.8643,646.8418 Z " fill="#000000"/><text fill="#000000" font-family="sans-serif" font-size="14" lengthAdjust="spacing" textLength="72" x="314.75" y="647.791">ownership</text><line style="stroke:#181818;stroke-width:0.5;" x1="246" x2="423" y1="658.5" y2="658.5"/><ellipse cx="256" cy="672.2441" fill="#84BE84" rx="3" ry="3" style="stroke:#038048;stroke-width:1.0;"/><text fill="#000000" font-family="sans-serif" font-size="14" lengthAdjust="spacing" textLength="102" x="265" y="676.0352">userId: INT(11)</text><ellipse cx="256" cy="688.7324" fill="#84BE84" rx="3" ry="3" style="stroke:#038048;stroke-width:1.0;"/><text fill="#000000" font-family="sans-serif" font-size="14" lengthAdjust="spacing" textLength="153" x="265" y="692.5234">roomId: VARCHAR(36)</text><line style="stroke:#181818;stroke-width:1.0;" x1="246" x2="423" y1="699.4766" y2="699.4766"/></g><!--MD5=[5180b47f0ee558a593bd346001d4404f]
class belonging--><g id="elem_belonging"><rect codeLine="44" fill="#F1F1F1" height="80.9766" id="belonging" rx="2.5" ry="2.5" style="stroke:#181818;stroke-width:0.5;" width="179" x="459" y="626.5"/><ellipse cx="509.25" cy="642.5" fill="#ADD1B2" rx="11" ry="11" style="stroke:#181818;stroke-width:1.0;"/><path d="M512.8643,649 L505.1445,649 L505.1445,636.6069 L512.8643,636.6069 L512.8643,638.7651 L507.5933,638.7651 L507.5933,641.438 L512.3662,641.438 L512.3662,643.5962 L507.5933,643.5962 L507.5933,646.8418 L512.8643,646.8418 Z " fill="#000000"/><text fill="#000000" font-family="sans-serif" font-size="14" lengthAdjust="spacing" textLength="70" x="529.75" y="647.791">belonging</text><line style="stroke:#181818;stroke-width:0.5;" x1="460" x2="637" y1="658.5" y2="658.5"/><ellipse cx="470" cy="672.2441" fill="#84BE84" rx="3" ry="3" style="stroke:#038048;stroke-width:1.0;"/><text fill="#000000" font-family="sans-serif" font-size="14" lengthAdjust="spacing" textLength="102" x="479" y="676.0352">userId: INT(11)</text><ellipse cx="470" cy="688.7324" fill="#84BE84" rx="3" ry="3" style="stroke:#038048;stroke-width:1.0;"/><text fill="#000000" font-family="sans-serif" font-size="14" lengthAdjust="spacing" textLength="153" x="479" y="692.5234">roomId: VARCHAR(36)</text><line style="stroke:#181818;stroke-width:1.0;" x1="460" x2="637" y1="699.4766" y2="699.4766"/></g><!--MD5=[c70b7c480cba94151bdcb7cb979154ed]
class public_file--><g id="elem_public_file"><rect codeLine="50" fill="#F1F1F1" height="97.4648" id="public_file" rx="2.5" ry="2.5" style="stroke:#181818;stroke-width:0.5;" width="147" x="258" y="164"/><ellipse cx="293.25" cy="180" fill="#ADD1B2" rx="11" ry="11" style="stroke:#181818;stroke-width:1.0;"/><path d="M296.8643,186.5 L289.1445,186.5 L289.1445,174.1069 L296.8643,174.1069 L296.8643,176.2651 L291.5933,176.2651 L291.5933,178.938 L296.3662,178.938 L296.3662,181.0962 L291.5933,181.0962 L291.5933,184.3418 L296.8643,184.3418 Z " fill="#000000"/><text fill="#000000" font-family="sans-serif" font-size="14" lengthAdjust="spacing" textLength="70" x="311.75" y="185.291">public_file</text><line style="stroke:#181818;stroke-width:0.5;" x1="259" x2="404" y1="196" y2="196"/><ellipse cx="269" cy="209.7441" fill="#84BE84" rx="3" ry="3" style="stroke:#038048;stroke-width:1.0;"/><text fill="#000000" font-family="sans-serif" font-size="14" lengthAdjust="spacing" textLength="72" x="278" y="213.5352">id: INT(11)</text><line style="stroke:#181818;stroke-width:1.0;" x1="259" x2="404" y1="220.4883" y2="220.4883"/><text fill="#000000" font-family="sans-serif" font-size="14" lengthAdjust="spacing" textLength="131" x="264" y="238.0234">url: VARCHAR(255)</text><text fill="#000000" font-family="sans-serif" font-size="14" lengthAdjust="spacing" textLength="135" x="264" y="254.5117">key: VARCHAR(255)</text></g><!--MD5=[386483e524645920ec80042177357ab9]
class tag--><g id="elem_tag"><rect codeLine="57" fill="#F1F1F1" height="97.4648" id="tag" rx="2.5" ry="2.5" style="stroke:#181818;stroke-width:0.5;" width="162" x="467.5" y="7"/><ellipse cx="533.25" cy="23" fill="#ADD1B2" rx="11" ry="11" style="stroke:#181818;stroke-width:1.0;"/><path d="M536.8643,29.5 L529.1445,29.5 L529.1445,17.1069 L536.8643,17.1069 L536.8643,19.2651 L531.5933,19.2651 L531.5933,21.938 L536.3662,21.938 L536.3662,24.0962 L531.5933,24.0962 L531.5933,27.3418 L536.8643,27.3418 Z " fill="#000000"/><text fill="#000000" font-family="sans-serif" font-size="14" lengthAdjust="spacing" textLength="22" x="553.75" y="28.291">tag</text><line style="stroke:#181818;stroke-width:0.5;" x1="468.5" x2="628.5" y1="39" y2="39"/><ellipse cx="478.5" cy="52.7441" fill="#84BE84" rx="3" ry="3" style="stroke:#038048;stroke-width:1.0;"/><text fill="#000000" font-family="sans-serif" font-size="14" lengthAdjust="spacing" textLength="72" x="487.5" y="56.5352">id: INT(11)</text><line style="stroke:#181818;stroke-width:1.0;" x1="468.5" x2="628.5" y1="63.4883" y2="63.4883"/><text fill="#000000" font-family="sans-serif" font-size="14" lengthAdjust="spacing" textLength="150" x="473.5" y="81.0234">name: VARCHAR(255)</text><text fill="#000000" font-family="sans-serif" font-size="14" lengthAdjust="spacing" textLength="114" x="473.5" y="97.5117">description(255)</text></g><!--MD5=[91d3c50377f7dfb0d93124be3075d19e]
class rooms_tags--><g id="elem_rooms_tags"><rect codeLine="64" fill="#F1F1F1" height="80.9766" id="rooms_tags" rx="2.5" ry="2.5" style="stroke:#181818;stroke-width:0.5;" width="179" x="459" y="172"/><ellipse cx="504.25" cy="188" fill="#ADD1B2" rx="11" ry="11" style="stroke:#181818;stroke-width:1.0;"/><path d="M507.8643,194.5 L500.1445,194.5 L500.1445,182.1069 L507.8643,182.1069 L507.8643,184.2651 L502.5933,184.2651 L502.5933,186.938 L507.3662,186.938 L507.3662,189.0962 L502.5933,189.0962 L502.5933,192.3418 L507.8643,192.3418 Z " fill="#000000"/><text fill="#000000" font-family="sans-serif" font-size="14" lengthAdjust="spacing" textLength="80" x="524.75" y="193.291">rooms_tags</text><line style="stroke:#181818;stroke-width:0.5;" x1="460" x2="637" y1="204" y2="204"/><ellipse cx="470" cy="217.7441" fill="#84BE84" rx="3" ry="3" style="stroke:#038048;stroke-width:1.0;"/><text fill="#000000" font-family="sans-serif" font-size="14" lengthAdjust="spacing" textLength="94" x="479" y="221.5352">tagId: INT(11)</text><ellipse cx="470" cy="234.2324" fill="#84BE84" rx="3" ry="3" style="stroke:#038048;stroke-width:1.0;"/><text fill="#000000" font-family="sans-serif" font-size="14" lengthAdjust="spacing" textLength="153" x="479" y="238.0234">roomId: VARCHAR(36)</text><line style="stroke:#181818;stroke-width:1.0;" x1="460" x2="637" y1="244.9766" y2="244.9766"/></g><!--MD5=[e7147c11cfb0f434cb4b3cdb1d11bd6d]
class invitation--><g id="elem_invitation"><rect codeLine="70" fill="#F1F1F1" height="163.418" id="invitation" rx="2.5" ry="2.5" style="stroke:#181818;stroke-width:0.5;" width="192" x="673.5" y="585.5"/><ellipse cx="733.25" cy="601.5" fill="#ADD1B2" rx="11" ry="11" style="stroke:#181818;stroke-width:1.0;"/><path d="M736.8643,608 L729.1445,608 L729.1445,595.6069 L736.8643,595.6069 L736.8643,597.7651 L731.5933,597.7651 L731.5933,600.438 L736.3662,600.438 L736.3662,602.5962 L731.5933,602.5962 L731.5933,605.8418 L736.8643,605.8418 Z " fill="#000000"/><text fill="#000000" font-family="sans-serif" font-size="14" lengthAdjust="spacing" textLength="64" x="753.75" y="606.791">invitation</text><line style="stroke:#181818;stroke-width:0.5;" x1="674.5" x2="864.5" y1="617.5" y2="617.5"/><ellipse cx="684.5" cy="631.2441" fill="#84BE84" rx="3" ry="3" style="stroke:#038048;stroke-width:1.0;"/><text fill="#000000" font-family="sans-serif" font-size="14" lengthAdjust="spacing" textLength="72" x="693.5" y="635.0352">id: INT(11)</text><line style="stroke:#181818;stroke-width:1.0;" x1="674.5" x2="864.5" y1="641.9883" y2="641.9883"/><text fill="#000000" font-family="sans-serif" font-size="14" lengthAdjust="spacing" textLength="153" x="679.5" y="659.5234">roomId: VARCHAR(36)</text><text fill="#000000" font-family="sans-serif" font-size="14" lengthAdjust="spacing" textLength="180" x="679.5" y="676.0117">expirationDate: DATETIME</text><text fill="#000000" font-family="sans-serif" font-size="14" lengthAdjust="spacing" textLength="127" x="679.5" y="692.5">isUsed: TINYINT(4)</text><text fill="#000000" font-family="sans-serif" font-size="14" lengthAdjust="spacing" textLength="163" x="679.5" y="708.9883">createdAt: DATETIME(6)</text><text fill="#000000" font-family="sans-serif" font-size="14" lengthAdjust="spacing" textLength="169" x="679.5" y="725.4766">updatedAt: DATETIME(6)</text><text fill="#000000" font-family="sans-serif" font-size="14" lengthAdjust="spacing" textLength="163" x="679.5" y="741.9648">deletedAt: DATETIME(6)</text></g><!--MD5=[c7e9e834b826aa4105a01745ee9572d9]
link public_file to user--><g id="link_public_file_user"><path codeLine="81" d="M326.31,269.32 C325.07,282.74 323.69,297.51 322.31,312.38 " fill="none" id="public_file-user" style="stroke:#181818;stroke-width:1.0;"/><line style="stroke:#181818;stroke-width:1.0;" x1="325.8981" x2="317.9314" y1="317.0214" y2="316.2919"/><line style="stroke:#181818;stroke-width:1.0;" x1="326.1716" x2="318.2049" y1="314.0339" y2="313.3044"/><line style="stroke:#181818;stroke-width:1.0;" x1="322.2794" x2="321.55" y1="312.6733" y2="320.64"/><line style="stroke:#181818;stroke-width:1.0;" x1="326.0493" x2="327.07" y1="272.1425" y2="261.19"/><ellipse cx="326.0493" cy="272.1425" fill="none" rx="4" ry="4" style="stroke:#181818;stroke-width:1.0;"/><line style="stroke:#181818;stroke-width:1.0;" x1="322.7161" x2="330.6816" y1="264.8016" y2="265.5439"/></g><!--MD5=[824a7d8ce089f165dae658672e05174a]
link user to ownership--><g id="link_user_ownership"><path codeLine="82" d="M321.92,525.32 C324.82,557.8 327.88,591.96 330.25,618.48 " fill="none" id="user-ownership" style="stroke:#181818;stroke-width:1.0;"/><line style="stroke:#181818;stroke-width:1.0;" x1="330.246" x2="336.9361" y1="618.4919" y2="625.9245"/><line style="stroke:#181818;stroke-width:1.0;" x1="330.246" x2="324.9839" y1="618.4919" y2="626.9955"/><line style="stroke:#181818;stroke-width:1.0;" x1="330.246" x2="330.96" y1="618.4919" y2="626.46"/><ellipse cx="329.7105" cy="612.5159" fill="none" rx="4" ry="4" style="stroke:#181818;stroke-width:1.0;"/><line style="stroke:#181818;stroke-width:1.0;" x1="317.563" x2="325.531" y1="521.571" y2="520.857"/><line style="stroke:#181818;stroke-width:1.0;" x1="317.8307" x2="325.7988" y1="524.5591" y2="523.8451"/><line style="stroke:#181818;stroke-width:1.0;" x1="321.904" x2="321.19" y1="525.1981" y2="517.23"/></g><!--MD5=[513d84e5fa2706ace264ffa910d4c69c]
link room to ownership--><g id="link_room_ownership"><path codeLine="83" d="M465.58,515.31 C434.26,551.32 400.03,590.67 374.41,620.12 " fill="none" id="room-ownership" style="stroke:#181818;stroke-width:1.0;"/><line style="stroke:#181818;stroke-width:1.0;" x1="374.3298" x2="373.6074" y1="620.2135" y2="630.1873"/><line style="stroke:#181818;stroke-width:1.0;" x1="374.3298" x2="364.5526" y1="620.2135" y2="622.3127"/><line style="stroke:#181818;stroke-width:1.0;" x1="374.3298" x2="369.08" y1="620.2135" y2="626.25"/><ellipse cx="378.2671" cy="615.6861" fill="none" rx="4" ry="4" style="stroke:#181818;stroke-width:1.0;"/><line style="stroke:#181818;stroke-width:1.0;" x1="465.2968" x2="471.3334" y1="509.5534" y2="514.8032"/><line style="stroke:#181818;stroke-width:1.0;" x1="463.3282" x2="469.3647" y1="511.8171" y2="517.0669"/><line style="stroke:#181818;stroke-width:1.0;" x1="465.6902" x2="470.94" y1="515.1965" y2="509.16"/></g><!--MD5=[a4ac76b52cc8ce46b8d36efde49e6d96]
link user to belonging--><g id="link_user_belonging"><path codeLine="84" d="M411.37,523.06 C443.93,556.99 478.47,593.01 504.75,620.4 " fill="none" id="user-belonging" style="stroke:#181818;stroke-width:1.0;"/><line style="stroke:#181818;stroke-width:1.0;" x1="505.036" x2="514.9028" y1="620.6829" y2="622.3095"/><line style="stroke:#181818;stroke-width:1.0;" x1="505.036" x2="506.2372" y1="620.6829" y2="630.6105"/><line style="stroke:#181818;stroke-width:1.0;" x1="505.036" x2="510.57" y1="620.6829" y2="626.46"/><ellipse cx="500.8855" cy="616.3501" fill="none" rx="4" ry="4" style="stroke:#181818;stroke-width:1.0;"/><line style="stroke:#181818;stroke-width:1.0;" x1="405.6557" x2="411.4257" y1="522.8857" y2="517.3443"/><line style="stroke:#181818;stroke-width:1.0;" x1="407.7338" x2="413.5037" y1="525.0494" y2="519.508"/><line style="stroke:#181818;stroke-width:1.0;" x1="411.3114" x2="405.77" y1="523" y2="517.23"/></g><!--MD5=[ff89184de9a462c71aac0a079999f86b]
link room to belonging--><g id="link_room_belonging"><path codeLine="85" d="M548.5,517.22 C548.5,551.86 548.5,589.34 548.5,618.03 " fill="none" id="room-belonging" style="stroke:#181818;stroke-width:1.0;"/><line style="stroke:#181818;stroke-width:1.0;" x1="548.5" x2="554.5" y1="618.25" y2="626.25"/><line style="stroke:#181818;stroke-width:1.0;" x1="548.5" x2="542.5" y1="618.25" y2="626.25"/><line style="stroke:#181818;stroke-width:1.0;" x1="548.5" x2="548.5" y1="618.25" y2="626.25"/><ellipse cx="548.5" cy="612.25" fill="none" rx="4" ry="4" style="stroke:#181818;stroke-width:1.0;"/><line style="stroke:#181818;stroke-width:1.0;" x1="544.5" x2="552.5" y1="513.16" y2="513.16"/><line style="stroke:#181818;stroke-width:1.0;" x1="544.5" x2="552.5" y1="516.16" y2="516.16"/><line style="stroke:#181818;stroke-width:1.0;" x1="548.5" x2="548.5" y1="517.16" y2="509.16"/></g><!--MD5=[d1de118ac41c75c624b7f078ce34cd9e]
link user to message--><g id="link_user_message"><path codeLine="86" d="M222.72,523.69 C209.25,539.24 195.42,555.22 182.11,570.59 " fill="none" id="user-message" style="stroke:#181818;stroke-width:1.0;"/><line style="stroke:#181818;stroke-width:1.0;" x1="182.0745" x2="181.3773" y1="570.6302" y2="580.6059"/><line style="stroke:#181818;stroke-width:1.0;" x1="182.0745" x2="172.3027" y1="570.6302" y2="572.7541"/><line style="stroke:#181818;stroke-width:1.0;" x1="182.0745" x2="176.84" y1="570.6302" y2="576.68"/><ellipse cx="186.0004" cy="566.0929" fill="none" rx="4" ry="4" style="stroke:#181818;stroke-width:1.0;"/><line style="stroke:#181818;stroke-width:1.0;" x1="222.6778" x2="228.7266" y1="517.6366" y2="522.8722"/><line style="stroke:#181818;stroke-width:1.0;" x1="220.7144" x2="226.7632" y1="519.9049" y2="525.1405"/><line style="stroke:#181818;stroke-width:1.0;" x1="223.0844" x2="228.32" y1="523.2788" y2="517.23"/></g><!--MD5=[5b20acf11c86d41316b0e5a2c0e67f97]
link message to message--><g id="link_message_message"><path codeLine="87" d="M192.05,621.81 C212.29,626.14 227,641.21 227,667 C227,689.37 215.94,703.67 199.8,709.89 " fill="none" id="message-to-message" style="stroke:#181818;stroke-width:1.0;"/><line style="stroke:#181818;stroke-width:1.0;" x1="202.5974" x2="192.05" y1="709.067" y2="712.19"/><ellipse cx="202.5974" cy="709.067" fill="none" rx="4" ry="4" style="stroke:#181818;stroke-width:1.0;"/><line style="stroke:#181818;stroke-width:1.0;" x1="197.021" x2="194.7498" y1="714.8898" y2="707.219"/></g><!--MD5=[efdfb90c1698c759c4d792015c9feacd]
link room to message--><g id="link_room_message"><path codeLine="88" d="M440.9,511.15 C437.45,513.2 433.98,515.16 430.5,517 C347.39,561.09 312.32,536.29 227.5,577 C218.07,581.53 208.57,586.71 199.23,592.26 " fill="none" id="room-message" style="stroke:#181818;stroke-width:1.0;"/><line style="stroke:#181818;stroke-width:1.0;" x1="198.9633" x2="195.25" y1="592.41" y2="601.695"/><line style="stroke:#181818;stroke-width:1.0;" x1="198.9633" x2="189.01" y1="592.41" y2="591.445"/><line style="stroke:#181818;stroke-width:1.0;" x1="198.9633" x2="192.13" y1="592.41" y2="596.57"/><ellipse cx="204.0883" cy="589.2899" fill="none" rx="4" ry="4" style="stroke:#181818;stroke-width:1.0;"/><line style="stroke:#181818;stroke-width:1.0;" x1="442.4593" x2="446.6401" y1="505.5001" y2="512.3207"/><line style="stroke:#181818;stroke-width:1.0;" x1="439.9016" x2="444.0824" y1="507.0679" y2="513.8885"/><line style="stroke:#181818;stroke-width:1.0;" x1="441.1394" x2="447.96" y1="511.0008" y2="506.82"/></g><!--MD5=[9852d15216fba79e4c22cf9fb2df635b]
link public_file to room--><g id="link_public_file_room"><path codeLine="89" d="M387.97,266.72 C406.31,284 427.25,303.73 447.81,323.11 " fill="none" id="public_file-room" style="stroke:#181818;stroke-width:1.0;"/><line style="stroke:#181818;stroke-width:1.0;" x1="453.7187" x2="448.2357" y1="323.1857" y2="329.0113"/><line style="stroke:#181818;stroke-width:1.0;" x1="451.5341" x2="446.0511" y1="321.1296" y2="326.9552"/><line style="stroke:#181818;stroke-width:1.0;" x1="448.0644" x2="453.89" y1="323.3571" y2="328.84"/><line style="stroke:#181818;stroke-width:1.0;" x1="390.0912" x2="382.1" y1="268.7492" y2="261.19"/><ellipse cx="390.0912" cy="268.7492" fill="none" rx="4" ry="4" style="stroke:#181818;stroke-width:1.0;"/><line style="stroke:#181818;stroke-width:1.0;" x1="382.2571" x2="387.7547" y1="266.8447" y2="261.0329"/></g><!--MD5=[13f104c8bcc2e567359bfa8657b34134]
link tag to rooms_tags--><g id="link_tag_rooms_tags"><path codeLine="90" d="M548.5,112.3 C548.5,129.12 548.5,147.42 548.5,163.67 " fill="none" id="tag-rooms_tags" style="stroke:#181818;stroke-width:1.0;"/><line style="stroke:#181818;stroke-width:1.0;" x1="548.5" x2="554.5" y1="163.96" y2="171.96"/><line style="stroke:#181818;stroke-width:1.0;" x1="548.5" x2="542.5" y1="163.96" y2="171.96"/><line style="stroke:#181818;stroke-width:1.0;" x1="548.5" x2="548.5" y1="163.96" y2="171.96"/><ellipse cx="548.5" cy="157.96" fill="none" rx="4" ry="4" style="stroke:#181818;stroke-width:1.0;"/><line style="stroke:#181818;stroke-width:1.0;" x1="544.5" x2="552.5" y1="108.27" y2="108.27"/><line style="stroke:#181818;stroke-width:1.0;" x1="544.5" x2="552.5" y1="111.27" y2="111.27"/><line style="stroke:#181818;stroke-width:1.0;" x1="548.5" x2="548.5" y1="112.27" y2="104.27"/></g><!--MD5=[37053f158efd73c80ee48e73b9eb5bed]
link rooms_tags to room--><g id="link_rooms_tags_room"><path codeLine="91" d="M548.5,261.48 C548.5,279.2 548.5,299.98 548.5,320.51 " fill="none" id="rooms_tags-room" style="stroke:#181818;stroke-width:1.0;"/><line style="stroke:#181818;stroke-width:1.0;" x1="552.5" x2="544.5" y1="324.66" y2="324.66"/><line style="stroke:#181818;stroke-width:1.0;" x1="552.5" x2="544.5" y1="321.66" y2="321.66"/><line style="stroke:#181818;stroke-width:1.0;" x1="548.5" x2="548.5" y1="320.66" y2="328.66"/><line style="stroke:#181818;stroke-width:1.0;" x1="548.5" x2="542.5" y1="261.42" y2="253.42"/><line style="stroke:#181818;stroke-width:1.0;" x1="548.5" x2="554.5" y1="261.42" y2="253.42"/><line style="stroke:#181818;stroke-width:1.0;" x1="548.5" x2="548.5" y1="261.42" y2="253.42"/><ellipse cx="548.5" cy="267.42" fill="none" rx="4" ry="4" style="stroke:#181818;stroke-width:1.0;"/></g><!--MD5=[0f754af882cd7b404a31d144261ab4dd]
link room to invitation--><g id="link_room_invitation"><path codeLine="92" d="M634.13,515.32 C653.04,536.37 672.97,558.55 691.55,579.23 " fill="none" id="room-invitation" style="stroke:#181818;stroke-width:1.0;"/><line style="stroke:#181818;stroke-width:1.0;" x1="691.6685" x2="701.4767" y1="579.3544" y2="581.3039"/><line style="stroke:#181818;stroke-width:1.0;" x1="691.6685" x2="692.5433" y1="579.3544" y2="589.3161"/><line style="stroke:#181818;stroke-width:1.0;" x1="691.6685" x2="697.01" y1="579.3544" y2="585.31"/><ellipse cx="687.6625" cy="574.8877" fill="none" rx="4" ry="4" style="stroke:#181818;stroke-width:1.0;"/><line style="stroke:#181818;stroke-width:1.0;" x1="628.2929" x2="634.2485" y1="514.8085" y2="509.4671"/><line style="stroke:#181818;stroke-width:1.0;" x1="630.296" x2="636.2516" y1="517.0419" y2="511.7004"/><line style="stroke:#181818;stroke-width:1.0;" x1="633.9415" x2="628.6" y1="515.1156" y2="509.16"/></g><!--MD5=[c94ace43708392e78000591a1cb15c0c]
@startuml er
entity "user" {
  +id: INT(11)
  - -
  subId: VARCHAR(24)
  name: VARCHAR(255)
  email: VARCHAR(255)
  description: VARCHAR(255)
  createdAt: DATETIME(6)
  updatedAt: DATETIME(6)
  deletedAt: DATETIME(6)
  avatarId: INT(11)
}

entity "message" {
  +id: INT(11)
  - -
  content: VARCHAR(4000)
  authorId: INT(11)
  parentId: INT(11)
  roomId: VARCHAR(255)
  createdAt: DATETIME(6)
  updatedAt: DATETIME(6)
  deletedAt: DATETIME(6)
}

entity "room" {
  +id: VARCHAR(36)
  - -
  name: VARCHAR(50)
  description: VARCHAR(120)
  isPrivate: TINYINT(4)
  createdAt: DATETIME(6)
  updatedAt: DATETIME(6)
  deletedAt: DATETIME(6)
  avatarId: INT(11)
}

entity "ownership" {
  +userId: INT(11)
  +roomId: VARCHAR(36)
  - -
}

entity "belonging" {
  +userId: INT(11)
  +roomId: VARCHAR(36)
  - -
}

entity "public_file" {
  +id: INT(11)
  - -
  url: VARCHAR(255)
  key: VARCHAR(255)
}

entity "tag" {
  +id: INT(11)
  - -
  name: VARCHAR(255)
  description(255)
}

entity "rooms_tags" {
  +tagId: INT(11)
  +roomId: VARCHAR(36)
  - -
}

entity "invitation" {
  +id: INT(11)
  - -
  roomId: VARCHAR(36)
  expirationDate: DATETIME
  isUsed: TINYINT(4)
  createdAt: DATETIME(6)
  updatedAt: DATETIME(6)
  deletedAt: DATETIME(6)
}

user ||-u-o| public_file
user ||- -o{ ownership
room ||- -o{ ownership
user ||- -o{ belonging
room ||- -o{ belonging
user ||- -o{ message
message - -o| message
room ||- -o{ message
room ||-u-o| public_file
tag ||- -o{ rooms_tags
room ||-u-o{ rooms_tags
room ||- -o{ invitation

@enduml

PlantUML version 1.2022.7(Tue Aug 23 02:01:30 JST 2022)
(GPL source distribution)
Java Runtime: OpenJDK Runtime Environment
JVM: OpenJDK 64-Bit Server VM
Default Encoding: UTF-8
Language: ja
Country: JP
--></g></svg>